<svg width="56" height="56" viewBox="0 0 56 56" fill="none" xmlns="http://www.w3.org/2000/svg">
<path fill-rule="evenodd" clip-rule="evenodd" d="M26.4018 37L23.8304 31.4086H14.5893L12.2321 37H11L18.9286 18H20.2679L29 37H26.4018ZM15.0982 30.1871H23.2679L19.0625 21.04H18.9554L15.0982 30.1871ZM31 29.4747V18H33.4375V30.1952C33.4375 30.551 33.4464 30.9068 33.4643 31.2626C33.4821 31.6184 33.5446 31.9743 33.6518 32.3301C33.7589 32.6681 33.9196 33.015 34.1339 33.3708C34.3482 33.7266 34.6607 34.0824 35.0714 34.4382C35.5893 34.9007 36.1339 35.2477 36.7054 35.4789C37.2946 35.7102 37.9643 35.8258 38.7143 35.8258C39.5893 35.8258 40.4286 35.7013 41.2321 35.4522C42.0357 35.2032 42.7589 34.7317 43.4018 34.0379C43.7589 33.6465 44.0268 33.2551 44.2054 32.8638C44.4018 32.4724 44.5446 32.081 44.6339 31.6896C44.7232 31.2804 44.7768 30.8801 44.7946 30.4888C44.8125 30.0796 44.8214 29.6793 44.8214 29.2879V18H46V30.1685C46 31.1114 45.8482 32.0009 45.5446 32.8371C45.2411 33.6554 44.7857 34.3759 44.1786 34.9986C43.5893 35.6213 42.8482 36.1105 41.9554 36.4663C41.0804 36.8221 40.0714 37 38.9286 37C37.1071 37 35.6696 36.7509 34.6161 36.2528C33.5625 35.7369 32.7679 35.1053 32.2321 34.3581C31.6964 33.5932 31.3571 32.7748 31.2143 31.9031C31.0714 31.0136 31 30.2041 31 29.4747Z" fill="#060606"/>
<rect x="0.5" y="0.5" width="55" height="55" rx="27.5" stroke="black"/>
</svg>
