<svg width="56" height="57" viewBox="0 0 56 57" fill="none" xmlns="http://www.w3.org/2000/svg">
<path fill-rule="evenodd" clip-rule="evenodd" d="M26.4018 37.5L23.8304 31.9086H14.5893L12.2321 37.5H11L18.9286 18.5H20.2679L29 37.5H26.4018ZM15.0982 30.6871H23.2679L19.0625 21.54H18.9554L15.0982 30.6871ZM31 29.9747V18.5H33.4375V30.6952C33.4375 31.051 33.4464 31.4068 33.4643 31.7626C33.4821 32.1184 33.5446 32.4743 33.6518 32.8301C33.7589 33.1681 33.9196 33.515 34.1339 33.8708C34.3482 34.2266 34.6607 34.5824 35.0714 34.9382C35.5893 35.4007 36.1339 35.7477 36.7054 35.9789C37.2946 36.2102 37.9643 36.3258 38.7143 36.3258C39.5893 36.3258 40.4286 36.2013 41.2321 35.9522C42.0357 35.7032 42.7589 35.2317 43.4018 34.5379C43.7589 34.1465 44.0268 33.7551 44.2054 33.3638C44.4018 32.9724 44.5446 32.581 44.6339 32.1896C44.7232 31.7804 44.7768 31.3801 44.7946 30.9888C44.8125 30.5796 44.8214 30.1793 44.8214 29.7879V18.5H46V30.6685C46 31.6114 45.8482 32.5009 45.5446 33.3371C45.2411 34.1554 44.7857 34.8759 44.1786 35.4986C43.5893 36.1213 42.8482 36.6105 41.9554 36.9663C41.0804 37.3221 40.0714 37.5 38.9286 37.5C37.1071 37.5 35.6696 37.2509 34.6161 36.7528C33.5625 36.2369 32.7679 35.6053 32.2321 34.8581C31.6964 34.0932 31.3571 33.2748 31.2143 32.4031C31.0714 31.5136 31 30.7041 31 29.9747Z" fill="#D9D9D9"/>
<rect x="0.5" y="1" width="55" height="55" rx="27.5" stroke="#D9D9D9"/>
</svg>
